<?xml version="1.0" standalone="no"?><!-- Generator: Adobe Fireworks CS5, Export SVG Extension by Aaron Beall (http://fireworks.abeall.com) . Version: 0.6.1  --><!DOCTYPE svg PUBLIC "-//W3C//DTD SVG 1.1//EN" "http://www.w3.org/Graphics/SVG/1.1/DTD/svg11.dtd"><svg id="Untitled-Page%201" viewBox="0 0 24 24" style="background-color:#ffffff00" version="1.1"	xmlns="http://www.w3.org/2000/svg" xmlns:xlink="http://www.w3.org/1999/xlink" xml:space="preserve"	x="0px" y="0px" width="24px" height="24px">	<path d="M 24 4.3311 C 23.1172 4.7256 22.168 4.9932 21.1719 5.1133 C 22.1885 4.4985 22.9697 3.5244 23.3369 2.3638 C 22.3848 2.9336 21.332 3.3472 20.21 3.5698 C 19.3125 2.6035 18.0332 2 16.6162 2 C 13.8975 2 11.6919 4.2256 11.6919 6.9697 C 11.6919 7.3589 11.7354 7.7388 11.8193 8.1021 C 7.7275 7.8945 4.0996 5.9165 1.6709 2.9102 C 1.2471 3.644 1.0039 4.4971 1.0039 5.4082 C 1.0039 7.1323 1.874 8.6538 3.1943 9.5444 C 2.3877 9.5186 1.6284 9.2949 0.9644 8.9233 C 0.9639 8.9434 0.9639 8.9644 0.9639 8.9854 C 0.9639 11.3936 2.6611 13.4014 4.9136 13.8584 C 4.5005 13.9717 4.0654 14.0332 3.6162 14.0332 C 3.2988 14.0332 2.9912 14.001 2.6899 13.9434 C 3.3169 15.917 5.1353 17.3535 7.29 17.3936 C 5.6045 18.7275 3.4814 19.5215 1.1748 19.5215 C 0.7769 19.5215 0.3848 19.498 0 19.4512 C 2.1792 20.8613 4.7671 21.6855 7.5479 21.6855 C 16.6045 21.6855 21.5576 14.1123 21.5576 7.5464 C 21.5576 7.3311 21.5527 7.1162 21.543 6.9033 C 22.5049 6.2021 23.3398 5.3276 24 4.3311 Z" fill="#000000"/></svg>